<?xml version="1.0" encoding="utf-8"?>
<svg id="master-artboard" viewBox="0 0 746.56640625 510.15167236328125" version="1.0" xmlns="http://www.w3.org/2000/svg" x="0px" y="0px" width="746.56640625px" height="510.15167236328125px" enable-background="new 0 0 1500 1500"><rect id="ee-background" x="0" y="0" width="746.56640625" height="510.15167236328125" style="fill: white; fill-opacity: 0; pointer-events: none;"/>
<metadata><!--?xpacket begin="﻿" id="W5M0MpCehiHzreSzNTczkc9d"?-->

                                                                                                    
                                                                                                    
                                                                                                    
                                                                                                    
                                                                                                    
                                                                                                    
                                                                                                    
                                                                                                    
                                                                                                    
                                                                                                    
                                                                                                    
                                                                                                    
                                                                                                    
                                                                                                    
                                                                                                    
                                                                                                    
                                                                                                    
                                                                                                    
                                                                                                    
                                                                                                    
                           
<!--?xpacket end="w"?-->
	</metadata>
<path d="M 0 0 H 1500 V 1500 H 0 V 0 Z" fill-rule="evenodd" clip-rule="evenodd" fill="#F9F8ED" transform="matrix(1, 0, 0, 1, -669.4733581542969, -927.9827461242676)"/>





<g transform="matrix(1, 0, 0, 1, -669.4733581542969, -927.9827461242676)">
	<path fill-rule="evenodd" clip-rule="evenodd" fill="#7CAB41" d="M903.063,1350.17c105.939,0,192.298-17.044,192.298-37.922&#10;&#9;&#9;s-86.358-37.921-192.298-37.921c-105.908,0-192.298,17.043-192.298,37.921S797.154,1350.17,903.063,1350.17L903.063,1350.17z"/>
	<path fill-rule="evenodd" clip-rule="evenodd" fill="#7CAB41" d="M1148.036,1371.327c105.908,0,192.298-17.012,192.298-37.922&#10;&#9;&#9;c0-20.879-86.39-37.921-192.298-37.921s-192.298,17.042-192.298,37.921C955.738,1354.315,1042.128,1371.327,1148.036,1371.327&#10;&#9;&#9;L1148.036,1371.327z"/>
	<path fill-rule="evenodd" clip-rule="evenodd" fill="#ECD169" d="M1108.073,1333.932c-2.382,2.071-3.897,5.103-3.897,8.505&#10;&#9;&#9;s1.516,6.466,3.897,8.537c2.383-2.071,3.866-5.135,3.866-8.537S1110.456,1336.003,1108.073,1333.932L1108.073,1333.932z&#10;&#9;&#9; M1093.32,1343.118c3.122-0.217,6.34,0.897,8.753,3.278c2.412,2.413,3.495,5.63,3.278,8.784c-3.125,0.216-6.372-0.865-8.753-3.279&#10;&#9;&#9;C1094.185,1349.489,1093.104,1346.273,1093.32,1343.118L1093.32,1343.118z M1122.827,1343.118&#10;&#9;&#9;c-3.154-0.217-6.371,0.897-8.784,3.278c-2.381,2.413-3.496,5.63-3.278,8.784c3.154,0.216,6.372-0.865,8.784-3.279&#10;&#9;&#9;C1121.963,1349.489,1123.043,1346.273,1122.827,1343.118L1122.827,1343.118z"/>
	<path fill-rule="evenodd" clip-rule="evenodd" fill="#ECD169" d="M1027.281,1296.287c-2.382,2.073-3.896,5.136-3.896,8.539&#10;&#9;&#9;c0,3.401,1.515,6.433,3.896,8.505c2.351-2.072,3.867-5.104,3.867-8.505C1031.148,1301.423,1029.632,1298.36,1027.281,1296.287&#10;&#9;&#9;L1027.281,1296.287z M1012.496,1305.505c3.155-0.216,6.372,0.867,8.784,3.279s3.495,5.63,3.28,8.754&#10;&#9;&#9;c-3.156,0.247-6.372-0.866-8.785-3.279C1013.395,1311.877,1012.279,1308.66,1012.496,1305.505L1012.496,1305.505z&#10;&#9;&#9; M1042.035,1305.505c-3.153-0.216-6.371,0.867-8.783,3.279c-2.413,2.412-3.495,5.63-3.279,8.754&#10;&#9;&#9;c3.154,0.247,6.371-0.866,8.784-3.279C1041.138,1311.877,1042.253,1308.66,1042.035,1305.505L1042.035,1305.505z"/>
	<path fill-rule="evenodd" clip-rule="evenodd" fill="#955624" d="M950.264,1251.47c20.506-8.661,35.602-20.415,45.654-37.675&#10;&#9;&#9;c-0.619,14.909,0.03,32.725,5.072,44.695c10.145,24.097,30.034,24.097,15.219,38.911c-14.786,14.785-48.191,8.042-61.306-28.332&#10;&#9;&#9;C952.738,1263.007,951.223,1257.099,950.264,1251.47L950.264,1251.47z"/>
	<path fill-rule="evenodd" clip-rule="evenodd" fill="#FEEB9C" d="M1016.301,1279.647c5.63,5.815,8.197,9.464-0.092,17.754&#10;&#9;&#9;c-8.568,8.6-23.447,9.898-36.963,2.381c0.618,0.124,14.289,3.001,18.342-4.298&#10;&#9;&#9;C1001.083,1289.205,1006.217,1282.152,1016.301,1279.647L1016.301,1279.647z"/>
	<path fill-rule="evenodd" clip-rule="evenodd" fill="#CC7629" d="M852.49,1101.948c-77.915,8.475-108.135,58.368-89.297,180.482&#10;&#9;&#9;c3.742,24.219,11.444,48.099,39.313,41.727c20.352-4.64,3.434-14.631,7.423-39.407c1.176-7.269,4.733-15.496,9.187-23.415&#10;&#9;&#9;c2.166-3.865,4.517-7.64,6.929-11.258c-0.062-0.031-0.155-0.093-0.217-0.155c20.043,14.445,49.182,19.456,75.286,17.198l0,0&#10;&#9;&#9;c-0.093,5.691,0.309,11.753,1.392,18.126c6.403,36.529,38.046,48.624,55.274,37.209c17.198-11.413-2.351-14.815-8.011-39.282&#10;&#9;&#9;c-1.887-8.104-1.392-18.373,0.153-28.426h-0.029c27.559-11.072,45.469-27.465,54.407-54.716&#10;&#9;&#9;C1020.602,1150.448,856.882,1101.453,852.49,1101.948L852.49,1101.948z"/>
	<path fill-rule="evenodd" clip-rule="evenodd" fill="#FEEB9C" d="M768.854,1306.866c5.69,13.084,16.053,21.373,33.652,17.166&#10;&#9;&#9;c12.001-2.845,11.043-7.639,9.063-16.393c-9.961-2.845-17.94,0.681-24.065,4.393c-7.33,4.393-18.063-5.476-18.063-5.476&#10;&#9;&#9;L768.854,1306.866z"/>
	<path fill-rule="evenodd" clip-rule="evenodd" fill="#FEEB9C" d="M919.116,1316.394c12.218,11.289,28.146,13.177,38.663,5.877&#10;&#9;&#9;c8.691-6.031,7.98-9.93,4.423-15.59c-11.567-1.02-18.929,4.826-24.25,10.331C932.106,1323.075,919.363,1316.548,919.116,1316.394&#10;&#9;&#9;L919.116,1316.394z"/>
	<path fill-rule="evenodd" clip-rule="evenodd" fill="#955624" d="M868.945,1273.12c7.517,25.055,27.25,27.189,10.981,40.304&#10;&#9;&#9;c-16.302,13.146-48.81,2.846-57.935-34.704c-1.732-7.115-2.598-13.889-2.877-20.229c2.166-4.021,4.517-7.979,6.929-11.724&#10;&#9;&#9;c11.476,8.538,25.89,13.89,40.984,16.457C867.43,1266.78,868.018,1270.09,868.945,1273.12L868.945,1273.12z"/>
	<path fill-rule="evenodd" clip-rule="evenodd" fill="#FEEB9C" d="M880.297,1293.782c6.001,7.641,9.651,11.568-0.37,19.642&#10;&#9;&#9;c-8.909,7.176-22.612,7.362-34.736-0.031l0.062-0.093c0,0,14.229,3.187,18.373-4.269&#10;&#9;&#9;C866.843,1303.186,871.544,1296.659,880.297,1293.782L880.297,1293.782z"/>
	<path fill-rule="evenodd" clip-rule="evenodd" fill="#BE6E29" d="M1029.106,1059.479c15.497,3.774,24.962,19.395,21.157,34.892&#10;&#9;&#9;c-3.774,15.496-19.425,24.96-34.891,21.156c-15.496-3.773-24.962-19.426-21.156-34.891&#10;&#9;&#9;C997.989,1065.14,1013.61,1055.676,1029.106,1059.479L1029.106,1059.479z"/>
	<path fill-rule="evenodd" clip-rule="evenodd" fill="#FEEB9C" d="M1026.26,1071.048c9.094,2.227,14.662,11.383,12.435,20.477&#10;&#9;&#9;c-0.494,2.104-1.392,4.021-2.566,5.691c-7.053-8.475-15.466-16.084-25.022-22.486&#10;&#9;&#9;C1015.095,1071.234,1020.693,1069.688,1026.26,1071.048L1026.26,1071.048z"/>
	<path fill-rule="evenodd" clip-rule="evenodd" fill="#BE6E29" d="M951.377,1059.604c-63.1,0-103.032,46.983-103.032,101.113&#10;&#9;&#9;c0,54.129,40.552,86.792,103.65,86.792c63.131,0,103.063-32.663,103.063-86.792&#10;&#9;&#9;C1055.058,1106.588,1014.507,1059.604,951.377,1059.604L951.377,1059.604z"/>
	<path fill-rule="evenodd" clip-rule="evenodd" fill="#FFF6DA" d="M981.844,1218.466c-6.063,5.691-15.589,9.434-26.385,9.619l0,0&#10;&#9;&#9;c-0.339,0.03-0.648,0.03-0.959,0.03c-11.258,0-21.249-3.865-27.465-9.805c-4.177-3.96-6.62-8.877-6.62-14.197&#10;&#9;&#9;c0-13.27,15.249-24.002,34.085-24.002c18.838,0,34.118,10.732,34.118,24.002C988.618,1209.495,986.082,1214.475,981.844,1218.466&#10;&#9;&#9;L981.844,1218.466z"/>
	<path fill-rule="evenodd" clip-rule="evenodd" fill="#BE6E29" d="M944.479,1055.182c0.278-3.279,0.154-6.342-0.03-8.384&#10;&#9;&#9;c-0.311-3.401-0.187-2.845-4.27-1.886c-18.559,4.393-34.859,27.343-43.892,41.571c35.942-25.952,62.574,18.774,94.402,0.68&#10;&#9;&#9;c3.557-2.01,3.896-2.04,1.453-5.041c-4.269-5.227-11.042-8.908-19.517-10.053c8.723-4.918,14.63-13.919,17.29-23.415&#10;&#9;&#9;c1.979-7.021,2.351-6.805-4.485-7.361C973.06,1040.303,962.018,1043.521,944.479,1055.182L944.479,1055.182z"/>
	<path fill-rule="evenodd" clip-rule="evenodd" fill="#BE6E29" d="M878.256,1054.438c-15.836,1.671-27.343,15.867-25.673,31.736&#10;&#9;&#9;c1.671,15.835,15.898,27.342,31.736,25.672c15.867-1.671,27.341-15.898,25.672-31.736&#10;&#9;&#9;C908.321,1064.244,894.123,1052.769,878.256,1054.438L878.256,1054.438z"/>
	<path fill-rule="evenodd" clip-rule="evenodd" fill="#FEEB9C" d="M879.214,1070.368c-9.187,1.916-15.032,10.918-13.114,20.074&#10;&#9;&#9;c0.434,2.104,1.269,4.053,2.382,5.783c7.33-8.258,15.991-15.589,25.766-21.651C890.35,1070.924,884.813,1069.193,879.214,1070.368&#10;&#9;&#9;L879.214,1070.368z"/>
	<path fill-rule="evenodd" clip-rule="evenodd" fill="#7D3018" d="M919.796,1139.653c2.104,2.228,3.495,5.784,3.589,9.773v0.031&#10;&#9;&#9;c0,0.093,0,0.218,0,0.341c0.029,4.176-1.393,7.918-3.589,10.237c-1.484,1.548-3.31,2.476-5.288,2.476&#10;&#9;&#9;c-4.918,0-8.939-5.66-8.971-12.682c0-6.991,3.959-12.682,8.908-12.682C916.425,1137.118,918.28,1138.075,919.796,1139.653&#10;&#9;&#9;L919.796,1139.653z"/>
	<path fill-rule="evenodd" clip-rule="evenodd" fill="#7D3018" d="M999.846,1139.653c2.134,2.228,3.526,5.784,3.619,9.773v0.031&#10;&#9;&#9;c0,0.093,0,0.218,0,0.341c0.031,4.176-1.392,7.918-3.619,10.237c-1.453,1.548-3.278,2.476-5.259,2.476&#10;&#9;&#9;c-4.948,0-8.938-5.66-8.97-12.682c-0.031-6.991,3.96-12.682,8.877-12.682C996.505,1137.118,998.361,1138.075,999.846,1139.653&#10;&#9;&#9;L999.846,1139.653z"/>
	<path fill-rule="evenodd" clip-rule="evenodd" fill="#F48A8B" d="M942.53,1218.898c6,6.372,18.064,6.341,24.034-0.063&#10;&#9;&#9;c1.793-1.917,2.721-4.021,2.999-6.154c-3.928-0.341-7.7-1.918-10.299-4.702c-3.341-3.525-3.774-7.671-2.538-11.444&#10;&#9;&#9;c-0.74-0.154-1.483-0.216-2.227-0.216c-0.742,0-1.484,0.062-2.227,0.216c1.238,3.742,0.805,7.857-2.442,11.384&#10;&#9;&#9;c-2.63,2.813-6.434,4.422-10.395,4.763C939.747,1214.815,940.705,1216.95,942.53,1218.898L942.53,1218.898z"/>
	<path fill-rule="evenodd" clip-rule="evenodd" fill="#7D3018" d="M962.945,1199.382c-1.856,1.731-4.825,2.906-8.135,2.969l0,0&#10;&#9;&#9;c-0.123,0-0.216,0-0.311,0c-3.463,0-6.557-1.206-8.475-3.032c-1.299-1.236-2.041-2.752-2.041-4.392&#10;&#9;&#9;c0-4.083,4.702-7.392,10.516-7.392c5.816,0,10.549,3.309,10.549,7.392C965.049,1196.598,964.244,1198.144,962.945,1199.382&#10;&#9;&#9;L962.945,1199.382z"/>
	<path fill="#7D3018" d="M932.57,1213.703c0.774,0.617,1.485,1.021,2.383,1.422c1.67,0.649,3.062,0.866,4.855,0.805&#10;&#9;&#9;c1.855-0.093,3.279-0.465,5.011-1.206c1.021-0.465,1.949-0.99,2.847-1.641c0.062-0.03,0.093-0.062,0.123-0.093&#10;&#9;&#9;c0.031-0.031,0.093-0.062,0.124-0.093c2.289-1.731,3.773-3.711,5.195-6.186c1.175-2.227,1.888-4.237,2.351-6.712&#10;&#9;&#9;c0.124-0.897,0.929-7.517-0.896-7.609c-1.113,0.124-1.887,5.722-2.195,6.928c-0.619,2.104-1.238,3.714-2.32,5.661&#10;&#9;&#9;c-1.269,2.041-2.476,3.495-4.393,4.949c-0.03,0-0.062,0.031-0.093,0.062c-0.03,0.031-0.062,0.031-0.092,0.063&#10;&#9;&#9;c-0.712,0.525-1.361,0.927-2.196,1.329c-1.269,0.588-2.289,0.898-3.681,1.053c-1.269,0.062-2.228-0.031-3.434-0.435&#10;&#9;&#9;c-0.31-0.03-1.393-0.618-1.733-0.834c-0.463-0.31-0.835-0.588-1.236-0.989c-0.866-0.836-2.567-3.465-3.434-3.279&#10;&#9;&#9;c-1.577,0.619,0.805,4.577,1.268,5.227C931.179,1212.465,932.262,1213.455,932.57,1213.703L932.57,1213.703z"/>
	<path fill="#7D3018" d="M976.431,1213.703c-0.773,0.617-1.453,1.021-2.382,1.422c-1.67,0.649-3.062,0.866-4.855,0.805&#10;&#9;&#9;c-1.856-0.093-3.279-0.465-4.979-1.206c-1.053-0.465-1.949-0.99-2.878-1.641c-0.03-0.03-0.093-0.062-0.123-0.093&#10;&#9;&#9;c-0.031-0.031-0.063-0.062-0.124-0.093c-2.258-1.731-3.773-3.711-5.195-6.186c-1.176-2.227-1.888-4.237-2.32-6.712&#10;&#9;&#9;c-0.124-0.897-0.959-7.517,0.865-7.609c1.113,0.124,1.887,5.722,2.196,6.928c0.619,2.104,1.237,3.714,2.351,5.661&#10;&#9;&#9;c1.237,2.041,2.443,3.495,4.362,4.949c0.03,0,0.062,0.031,0.092,0.062c0.031,0.031,0.063,0.031,0.093,0.063&#10;&#9;&#9;c0.743,0.525,1.392,0.927,2.196,1.329c1.268,0.588,2.319,0.898,3.681,1.053c1.269,0.062,2.228-0.031,3.434-0.435&#10;&#9;&#9;c0.31-0.03,1.422-0.618,1.732-0.834c0.464-0.31,0.835-0.588,1.269-0.989c0.835-0.836,2.567-3.465,3.402-3.279&#10;&#9;&#9;c1.608,0.619-0.805,4.577-1.238,5.227C977.854,1212.465,976.74,1213.455,976.431,1213.703L976.431,1213.703z"/>
	<path fill-rule="evenodd" clip-rule="evenodd" fill="#D34C27" d="M1189.112,1295.02c3.403-17.043,42.624-42.777,84.04-24.064&#10;&#9;&#9;c41.447,18.714,54.222,9.372,67.027-12.434c10.981-18.683,33.963-21.931,30.158,2.938c-4.733,30.716-32.354,45.222-69.379,42.81&#10;&#9;&#9;c-37.024-2.382-74.513-29.726-89.822-5.319C1195.793,1323.353,1181.72,1315.558,1189.112,1295.02L1189.112,1295.02z"/>
	<path fill-rule="evenodd" clip-rule="evenodd" fill="#E86224" d="M1142.933,1190.628c0,0-1.608,5.66-3.403,12.311&#10;&#9;&#9;c-13.608-11.197-16.919-29.323-17.537-41.139c-6.681,4.238-15.342,6.99-21.311,5.29c-4.208-1.207-6.775-3.683-7.98-6.681&#10;&#9;&#9;c0.03,0.803,0.062,1.606,0.093,2.443c0.31,7.484,1.236,16.424,3.31,26.754c3.526,17.569,16.609,31.922,28.704,41.819&#10;&#9;&#9;c1.083,0.865,2.134,1.702,3.153,2.505c6.559,2.166-13.114,37.829-0.803,66.162c8.847,20.352,35.51,32.262,65.296,32.292&#10;&#9;&#9;c39.963,0.063,82.555-22.333,66.532-84.009c-4.98-19.115-12.59-45.778-16.022-57.748H1142.933z"/>
	<path fill-rule="evenodd" clip-rule="evenodd" fill="#E85524" d="M1193.289,1013.919c62.696,0,113.517,45.53,113.517,101.67&#10;&#9;&#9;c0,56.108-50.82,101.64-113.517,101.64c-17.385,0-33.839-3.495-48.563-9.774c-2.289-1.423-4.578-3.278-6.557-5.692&#10;&#9;&#9;c-7.424-9.062-11.63-13.919-14.105-32.197c-2.475-18.281-1.547-22.023-1.547-22.023s-26.013,11.847-29.724,15.312&#10;&#9;&#9;c-8.32-14.104-13.022-30.189-13.022-47.264C1079.771,1059.449,1130.592,1013.919,1193.289,1013.919L1193.289,1013.919z"/>
	<path fill-rule="evenodd" clip-rule="evenodd" fill="#FEEB9C" d="M1261.769,1196.628c-19.021,12.929-42.745,20.601-68.479,20.601&#10;&#9;&#9;c-15.033,0-29.385-2.629-42.5-7.393c-14.507-6.187-21.188-18.219-23.662-23.909c7.919-20.508,34.52-35.571,66.162-35.571&#10;&#9;&#9;C1230.22,1150.355,1260.315,1170.894,1261.769,1196.628L1261.769,1196.628z"/>
	<path fill-rule="evenodd" clip-rule="evenodd" fill="#E85524" d="M1170.926,1033.56c-2.505-16.609-32.508-61.243-43.057-57.377&#10;&#9;&#9;c-12.465,4.577-26.879,60.348-21.25,74.266C1110.609,1060.377,1170.926,1033.56,1170.926,1033.56L1170.926,1033.56z"/>
	<path fill-rule="evenodd" clip-rule="evenodd" fill="#E85524" d="M1215.651,1033.56c2.506-16.609,32.509-61.243,43.057-57.377&#10;&#9;&#9;c12.435,4.577,26.879,60.348,21.249,74.266C1275.968,1060.377,1215.651,1033.56,1215.651,1033.56L1215.651,1033.56z"/>
	<path fill-rule="evenodd" clip-rule="evenodd" fill="#7D3018" d="M1100.682,1167.09c5.969,1.7,14.63-1.052,21.311-5.29&#10;&#9;&#9;c6.125-3.928,10.609-9.094,9.774-13.269c-3.557-18.405-26.569-12.868-34.241-5.042c-4.855,4.917-6.866,11.722-4.824,16.92&#10;&#9;&#9;C1093.906,1163.407,1096.474,1165.883,1100.682,1167.09L1100.682,1167.09z"/>
	<path fill-rule="evenodd" clip-rule="evenodd" fill="#FFF6DA" d="M1166.162,1189.699c6.001,5.63,15.466,9.342,26.168,9.558h0.029&#10;&#9;&#9;c0.31,0,0.62,0,0.93,0c11.196,0,21.125-3.805,27.28-9.711c4.146-3.928,6.589-8.816,6.589-14.105&#10;&#9;&#9;c0-13.177-15.157-23.848-33.869-23.848c-18.714,0-33.87,10.671-33.87,23.848C1159.419,1180.791,1161.924,1185.71,1166.162,1189.699&#10;&#9;&#9;L1166.162,1189.699z"/>
	<path fill-rule="evenodd" clip-rule="evenodd" fill="#7D3018" d="M1184.906,1170.739c1.855,1.731,4.764,2.876,8.073,2.938&#10;&#9;&#9;c0.03,0,0.03,0,0.03,0c0.093,0,0.187,0,0.279,0c3.463,0,6.526-1.175,8.412-3c1.3-1.205,2.042-2.722,2.042-4.361&#10;&#9;&#9;c0-4.052-4.671-7.361-10.454-7.361c-5.785,0-10.455,3.31-10.455,7.361C1182.834,1167.986,1183.607,1169.502,1184.906,1170.739&#10;&#9;&#9;L1184.906,1170.739z"/>
	<path fill-rule="evenodd" clip-rule="evenodd" fill="#FFF6DA" d="M1153.295,1020.414c-5.289-10.888-16.456-25.673-21.003-24.002&#10;&#9;&#9;c-6.896,2.536-14.878,33.374-11.784,41.044c0.031,0.031,0.031,0.063,0.063,0.094&#10;&#9;&#9;C1130.251,1030.281,1141.294,1024.466,1153.295,1020.414L1153.295,1020.414z M1233.282,1020.414&#10;&#9;&#9;c5.289-10.888,16.455-25.673,21.003-24.002c6.896,2.536,14.878,33.374,11.754,41.044c0,0.031,0,0.063-0.031,0.094&#10;&#9;&#9;C1256.326,1030.281,1245.283,1024.466,1233.282,1020.414L1233.282,1020.414z"/>
	<path fill="#7D3018" d="M1196.876,1047.788c0.402-4.578,0.496-9.619,0.589-14.259c0-0.031,0-0.093-0.031-0.124&#10;&#9;&#9;c0.031-0.03,0.031-0.093,0.031-0.123c-0.093-4.641-0.187-9.683-0.589-14.261c-0.247-1.917-0.37-6.618-3.124-6.741&#10;&#9;&#9;c-2.753,0.123-2.906,4.794-3.154,6.741c-0.402,4.578-0.494,9.62-0.589,14.261c0,0.03,0.031,0.093,0.031,0.123&#10;&#9;&#9;c0,0.031-0.031,0.093-0.031,0.124c0.095,4.64,0.187,9.681,0.589,14.259c0.248,1.949,0.401,6.619,3.154,6.743&#10;&#9;&#9;C1196.506,1054.407,1196.629,1049.706,1196.876,1047.788L1196.876,1047.788z"/>
	<path fill="#7D3018" d="M1171.636,1038.663c0.372-3.123,0.403-6.866,0.496-10.082c0-0.031,0-0.063,0-0.093&#10;&#9;&#9;c0-0.031,0.031-0.063,0.031-0.093c-0.063-3.156,0.03-6.435-0.063-9.527c-0.093-2.012-0.217-3.682-2.381-4.269&#10;&#9;&#9;c-2.476-0.588-3.124,1.392-3.836,3.464c-0.772,3.031-1.082,7.084-1.176,10.237c0,0.063,0,0.095,0.031,0.124&#10;&#9;&#9;c-0.031,0.032-0.031,0.063-0.031,0.094c0.031,3.154,0.218,7.145,0.681,10.237c0.434,2.134,0.742,4.083,3.155,4.146&#10;&#9;&#9;C1171.018,1042.839,1171.297,1040.798,1171.636,1038.663L1171.636,1038.663z"/>
	<path fill="#7D3018" d="M1214.816,1038.663c-0.37-3.123-0.402-6.866-0.495-10.082c0-0.031,0-0.063,0-0.093c0-0.031,0-0.063,0-0.093&#10;&#9;&#9;c0.03-3.156-0.063-6.435,0.03-9.527c0.124-2.012,0.219-3.682,2.383-4.269c2.475-0.588,3.155,1.392,3.835,3.464&#10;&#9;&#9;c0.806,3.031,1.083,7.084,1.176,10.237c0,0.063,0,0.095,0,0.124c0,0.032,0,0.063,0,0.094c-0.03,3.154-0.186,7.145-0.681,10.237&#10;&#9;&#9;c-0.433,2.134-0.711,4.083-3.155,4.146C1215.435,1042.839,1215.188,1040.798,1214.816,1038.663L1214.816,1038.663z"/>
	<path fill="#7D3018" d="M1120.57,1198.082l-0.897,0.155c-2.413,0.525-4.516,1.392-6.495,2.846c-0.031,0.03-0.031,0.062-0.063,0.092&#10;&#9;&#9;c-0.03,0-0.062,0-0.093,0.031c-0.989,0.836-1.825,1.732-2.63,2.783c-1.268,1.701-2.226,3.465-2.659,5.567&#10;&#9;&#9;c-0.278,2.104-0.34,4.672,2.319,4.733c2.011,0,2.599-1.176,3.588-2.723c0.773-1.205,1.237-1.948,2.228-3.001&#10;&#9;&#9;c0.619-0.617,1.083-1.021,1.763-1.515c0.031-0.031,0.031-0.031,0.031-0.062c0.031,0,0.062,0,0.062,0&#10;&#9;&#9;c1.207-0.989,2.165-1.577,3.619-2.165c0.649-0.248,1.578-0.681,2.228-0.99c1.639-0.865,4.423-2.041,2.753-4.268&#10;&#9;&#9;c-1.269-1.764,0.341-2.6-4.765-1.672L1120.57,1198.082z"/>
	<path fill="#7D3018" d="M1122.115,1210.764c-0.185,0.093-0.37,0.216-0.557,0.341c-1.422,0.958-2.474,2.195-3.463,3.588&#10;&#9;&#9;c-0.063,0.062-0.341,0.495-0.402,0.617c0,0.031-0.031,0.031,0,0.063c-0.031,0-0.063,0.031-0.063,0.062&#10;&#9;&#9;c-0.804,1.424-1.825,4.393-1.794,6.002c0.031,2.04,0.866,2.752,2.784,2.722c1.331-0.031,2.443-0.186,3.31-1.299&#10;&#9;&#9;c0.711-1.114,1.392-2.536,2.165-3.743c0-0.03,0-0.03,0-0.063c0.03,0,0.03,0,0.03-0.029c0.031-0.063,0.249-0.465,0.249-0.465&#10;&#9;&#9;c0.494-0.928,1.051-1.763,1.516-2.66c0.061-0.093,0.092-0.155,0.123-0.247c0.123-0.248,0.154-0.402,0.123-0.681&#10;&#9;&#9;c-0.062-1.36-0.093-1.206,0.031-2.63c0.124-1.701-0.587-2.257-2.351-2.103C1123.447,1210.177,1122.457,1210.578,1122.115,1210.764&#10;&#9;&#9;L1122.115,1210.764z"/>
	<path fill-rule="evenodd" clip-rule="evenodd" fill="#7D3018" d="M1158.801,1117.383c2.103,2.229,3.494,5.753,3.588,9.712&#10;&#9;&#9;c0,0.031,0,0.031,0,0.031c0,0.093,0,0.217,0,0.341c0,4.176-1.393,7.855-3.588,10.146c-1.454,1.546-3.278,2.475-5.258,2.475&#10;&#9;&#9;c-4.887,0-8.878-5.631-8.878-12.59c-0.031-6.929,3.929-12.589,8.815-12.619C1155.49,1114.878,1157.316,1115.806,1158.801,1117.383&#10;&#9;&#9;L1158.801,1117.383z"/>
	<path fill-rule="evenodd" clip-rule="evenodd" fill="#7D3018" d="M1238.324,1117.383c2.103,2.229,3.494,5.753,3.588,9.712&#10;&#9;&#9;c0,0.031,0,0.031,0,0.031c0,0.093,0,0.217,0,0.341c0.03,4.176-1.393,7.855-3.588,10.146c-1.453,1.546-3.279,2.475-5.229,2.475&#10;&#9;&#9;c-4.917,0-8.876-5.631-8.906-12.59c-0.031-6.929,3.928-12.589,8.814-12.619C1235.014,1114.878,1236.84,1115.806,1238.324,1117.383&#10;&#9;&#9;L1238.324,1117.383z"/>
	<path fill="#7D3018" d="M1121.59,1151.283c0.124-1.144,1.145-1.948,2.259-1.825c1.144,0.124,1.949,1.145,1.825,2.258&#10;&#9;&#9;c0,0.124-5.228,43.428,25.98,56.666c1.021,0.465,1.518,1.671,1.083,2.691c-0.432,1.051-1.638,1.547-2.689,1.114&#10;&#9;&#9;C1115.961,1197.742,1121.559,1151.407,1121.59,1151.283L1121.59,1151.283z"/>
	<path fill="#7D3018" d="M1171.513,1186.359c0.773,0.619,1.454,0.989,2.352,1.391c1.67,0.65,3.03,0.866,4.824,0.806&#10;&#9;&#9;c1.856-0.093,3.248-0.465,4.98-1.207c1.021-0.463,1.918-0.959,2.845-1.639c0.031,0,0.063-0.031,0.093-0.092&#10;&#9;&#9;c0.063,0,0.093-0.031,0.125-0.063c2.257-1.732,3.773-3.681,5.195-6.155c0.527-1.052,0.99-2.072,1.362-3.124&#10;&#9;&#9;c0.371,1.052,0.804,2.072,1.36,3.124c1.424,2.475,2.939,4.423,5.196,6.155c0.031,0.032,0.063,0.063,0.124,0.063&#10;&#9;&#9;c0.031,0.061,0.062,0.092,0.093,0.092c0.928,0.68,1.824,1.176,2.846,1.639c1.701,0.742,3.123,1.114,4.979,1.207&#10;&#9;&#9;c1.794,0.061,3.154-0.155,4.794-0.806c0.93-0.401,1.608-0.771,2.383-1.391c0.309-0.247,1.392-1.269,1.545-1.578&#10;&#9;&#9;c0.465-0.649,2.848-4.577,1.271-5.196c-0.866-0.186-2.568,2.444-3.404,3.278c-0.401,0.372-0.804,0.65-1.269,0.959&#10;&#9;&#9;c-0.309,0.217-1.392,0.806-1.7,0.837c-1.206,0.401-2.165,0.494-3.402,0.401c-1.392-0.124-2.412-0.433-3.681-1.021&#10;&#9;&#9;c-0.805-0.401-1.454-0.804-2.165-1.329c-0.031,0-0.063-0.031-0.093-0.063c-0.031-0.03-0.063-0.03-0.093-0.062&#10;&#9;&#9;c-1.888-1.423-3.094-2.877-4.331-4.918c-1.113-1.918-1.731-3.495-2.351-5.599c-0.154-0.681-0.464-2.69-0.897-4.361&#10;&#9;&#9;c-0.093-1.361-0.401-2.475-1.145-2.536c-0.03,0-0.03,0-0.061,0.031c-0.031-0.031-0.031-0.031-0.063-0.031&#10;&#9;&#9;c-0.743,0.062-1.052,1.175-1.145,2.536c-0.433,1.671-0.742,3.681-0.928,4.361c-0.588,2.104-1.207,3.681-2.32,5.599&#10;&#9;&#9;c-1.237,2.041-2.443,3.495-4.329,4.918c-0.032,0.031-0.062,0.031-0.094,0.062c-0.03,0.031-0.063,0.063-0.092,0.063&#10;&#9;&#9;c-0.712,0.525-1.362,0.928-2.197,1.329c-1.236,0.589-2.289,0.897-3.65,1.021c-1.236,0.093-2.195,0-3.402-0.401&#10;&#9;&#9;c-0.309-0.031-1.392-0.62-1.73-0.837c-0.435-0.309-0.837-0.587-1.238-0.959c-0.835-0.834-2.536-3.464-3.402-3.278&#10;&#9;&#9;c-1.577,0.619,0.806,4.547,1.269,5.196C1170.121,1185.091,1171.203,1186.112,1171.513,1186.359L1171.513,1186.359z"/>
	<path fill-rule="evenodd" clip-rule="evenodd" fill="#E86224" d="M1127.961,1252.149c-8.659-6.187-27.867,4.361-19.207,31.61&#10;&#9;&#9;c1.608,5.043,6.154,16.333,14.32,25.335c11.568,12.712,28.148,22.362,34.953,16.517&#10;&#9;&#9;C1162.389,1321.898,1141.912,1255.243,1127.961,1252.149L1127.961,1252.149z"/>
	<path fill-rule="evenodd" clip-rule="evenodd" fill="#E86224" d="M1259.945,1252.149c8.69-6.187,27.899,4.361,19.208,31.61&#10;&#9;&#9;c-8.661,27.282-16.115,35.355-16.115,35.355s-28.798,10.207-33.158,6.496C1225.55,1321.898,1245.995,1255.243,1259.945,1252.149&#10;&#9;&#9;L1259.945,1252.149z"/>
	<path fill-rule="evenodd" clip-rule="evenodd" fill="#E86224" d="M1133.251,1310.485c15.218,1.392,18.59,5.351,18.59,11.507&#10;&#9;&#9;c0,13.796-46.181,12.093-46.181,1.763C1105.66,1317.6,1118.003,1309.095,1133.251,1310.485L1133.251,1310.485z"/>
	<path fill-rule="evenodd" clip-rule="evenodd" fill="#E86224" d="M1251.625,1310.485c15.249,1.392,27.59,7.516,27.59,13.672&#10;&#9;&#9;c0,13.794-55.149,9.928-55.149-0.402C1224.065,1317.6,1236.406,1309.095,1251.625,1310.485L1251.625,1310.485z"/>
	<path fill="#7D3018" d="M1247.635,1220.724c0.216-1.175,1.393-1.949,2.566-1.7c1.207,0.216,1.979,1.392,1.732,2.566&#10;&#9;&#9;c-1.485,7.454-2.598,22.518-3.433,38.664c-0.836,16.3-1.392,33.56-1.701,45.251c-0.094,2.536,1.608,6.589,3.309,10.703&#10;&#9;&#9;c0.682,1.577,1.361,3.217,2.011,4.918c2.042,5.537,2.104,9.743,0.805,12.929c-1.299,3.155-3.867,5.196-7.115,6.372&#10;&#9;&#9;c-3,1.051-6.557,1.392-10.206,1.269c-9.435-0.342-19.889-3.96-22.084-6.156c-8.724-8.722-0.96-84.162-0.96-84.38&#10;&#9;&#9;c0.031-1.206,1.053-2.133,2.258-2.133c1.207,0.029,2.166,1.051,2.135,2.257c0,0.187-7.732,73.739-0.342,81.133&#10;&#9;&#9;c1.733,1.731,10.703,4.608,19.147,4.918c3.124,0.093,6.155-0.186,8.567-1.052c2.135-0.743,3.773-2.011,4.547-3.897&#10;&#9;&#9;c0.897-2.196,0.773-5.32-0.865-9.713c-0.526-1.453-1.238-3.124-1.918-4.794c-1.918-4.517-3.773-9.002-3.681-12.465&#10;&#9;&#9;c0.341-11.815,0.866-29.168,1.701-45.376C1244.943,1243.675,1246.088,1228.363,1247.635,1220.724L1247.635,1220.724z"/>
	<path fill-rule="evenodd" clip-rule="evenodd" fill="#7D3018" d="M1214.57,1337.241c4.606,4.855,14.258,7.052,22.826,6.743&#10;&#9;&#9;c7.887-0.31,14.908-2.692,16.424-7.053c6.743-19.178-17.785-26.602-29.261-23.508c-7.237,1.949-12.866,7.206-13.796,13.178&#10;&#9;&#9;C1210.238,1330.097,1211.29,1333.808,1214.57,1337.241L1214.57,1337.241z"/>
	<path fill-rule="evenodd" clip-rule="evenodd" fill="#FEEB9C" d="M1156.542,1295.516c0.125,5.134,4.485,29.755,3.526,31.271&#10;&#9;&#9;c-0.063,0.124-0.155,0.217-0.217,0.341c9.806,3.433,20.971,5.258,32.603,5.258c6.155,0,12.372-0.526,18.465-1.64&#10;&#9;&#9;c-0.247-0.99-0.309-1.98-0.278-2.969c-1.269-7.393-1.453-18.652-1.145-30.313c0.464-16.146,1.856-33.033,2.6-41.23&#10;&#9;&#9;c-2.26-1.671-20.446-14.476-41.913-2.288C1158.677,1260.47,1156.171,1278.812,1156.542,1295.516L1156.542,1295.516z"/>
	<path fill="#7D3018" d="M1123.043,1268.759l-0.896,0.156c-2.412,0.494-4.517,1.392-6.495,2.845c0,0-0.031,0.031-0.063,0.062&#10;&#9;&#9;c-0.03,0-0.062,0.031-0.062,0.063c-1.021,0.804-1.856,1.732-2.66,2.753c-1.268,1.731-2.227,3.495-2.66,5.599&#10;&#9;&#9;c-0.278,2.103-0.341,4.64,2.35,4.702c1.98,0,2.568-1.178,3.558-2.692c0.773-1.206,1.237-1.948,2.258-3.031&#10;&#9;&#9;c0.589-0.587,1.083-0.988,1.732-1.516c0.031,0,0.031-0.03,0.031-0.03c0.03,0,0.062,0,0.062-0.031&#10;&#9;&#9;c1.207-0.99,2.166-1.547,3.619-2.135c0.649-0.247,1.578-0.71,2.227-1.021c1.64-0.834,4.424-2.04,2.784-4.268&#10;&#9;&#9;c-1.3-1.731,0.31-2.566-4.795-1.64L1123.043,1268.759z"/>
	<path fill="#7D3018" d="M1124.591,1281.441c-0.186,0.094-0.372,0.216-0.558,0.34c-1.423,0.928-2.475,2.197-3.434,3.558&#10;&#9;&#9;c-0.092,0.093-0.37,0.525-0.433,0.649c0,0,0,0.031,0,0.062c-0.03,0-0.062,0-0.062,0.031c-0.804,1.423-1.825,4.392-1.794,6.001&#10;&#9;&#9;c0.03,2.041,0.866,2.783,2.784,2.721c1.33-0.03,2.475-0.153,3.31-1.299c0.711-1.082,1.393-2.505,2.164-3.742v-0.03&#10;&#9;&#9;c0.032-0.031,0.032-0.031,0.032-0.031c0.03-0.062,0.248-0.465,0.248-0.495c0.494-0.929,1.051-1.763,1.515-2.63&#10;&#9;&#9;c0.062-0.092,0.093-0.153,0.154-0.277c0.093-0.217,0.124-0.402,0.124-0.65c-0.093-1.392-0.093-1.206,0.031-2.659&#10;&#9;&#9;c0.093-1.702-0.618-2.228-2.351-2.073C1125.921,1280.854,1124.932,1281.255,1124.591,1281.441L1124.591,1281.441z"/>
	<path fill="#7D3018" d="M1265.109,1268.759l0.93,0.156c2.381,0.494,4.484,1.392,6.464,2.845c0.031,0,0.063,0.031,0.063,0.062&#10;&#9;&#9;c0.03,0,0.062,0.031,0.093,0.063c0.989,0.804,1.856,1.732,2.659,2.753c1.237,1.731,2.228,3.495,2.66,5.599&#10;&#9;&#9;c0.248,2.103,0.341,4.64-2.351,4.702c-1.979,0-2.599-1.178-3.589-2.692c-0.771-1.206-1.236-1.948-2.226-3.031&#10;&#9;&#9;c-0.619-0.587-1.082-0.988-1.764-1.516l-0.031-0.03c-0.03,0-0.03,0-0.061-0.031c-1.207-0.99-2.166-1.547-3.619-2.135&#10;&#9;&#9;c-0.65-0.247-1.579-0.71-2.197-1.021c-1.64-0.834-4.422-2.04-2.784-4.268c1.3-1.731-0.309-2.566,4.795-1.64L1265.109,1268.759z"/>
	<path fill="#7D3018" d="M1263.564,1281.441c0.216,0.094,0.401,0.216,0.587,0.34c1.392,0.928,2.475,2.197,3.434,3.558&#10;&#9;&#9;c0.063,0.093,0.341,0.525,0.402,0.649c0.03,0,0.03,0.031,0.03,0.062c0,0,0.031,0,0.031,0.031c0.835,1.423,1.855,4.392,1.826,6.001&#10;&#9;&#9;c-0.063,2.041-0.898,2.783-2.816,2.721c-1.329-0.03-2.443-0.153-3.278-1.299c-0.742-1.082-1.423-2.505-2.196-3.742v-0.03&#10;&#9;&#9;c0-0.031-0.03-0.031-0.03-0.031c-0.031-0.062-0.248-0.465-0.248-0.495c-0.464-0.929-1.021-1.763-1.516-2.63&#10;&#9;&#9;c-0.03-0.092-0.093-0.153-0.124-0.277c-0.092-0.217-0.153-0.402-0.124-0.65c0.095-1.392,0.095-1.206-0.029-2.659&#10;&#9;&#9;c-0.125-1.702,0.587-2.228,2.351-2.073C1262.233,1280.854,1263.224,1281.255,1263.564,1281.441L1263.564,1281.441z"/>
	<path fill="#7D3018" d="M1223.508,1293.535l0.836,0.37c2.319,0.836,4.547,1.238,6.99,1.053c0.03,0,0.062-0.031,0.093-0.031&#10;&#9;&#9;c0.03,0,0.062,0,0.093,0c1.299-0.154,2.506-0.494,3.742-0.928c1.979-0.772,3.743-1.763,5.228-3.31&#10;&#9;&#9;c1.329-1.64,2.784-3.742,0.526-5.227c-1.67-1.053-2.815-0.403-4.454,0.37c-1.3,0.619-2.073,0.99-3.495,1.36&#10;&#9;&#9;c-0.836,0.188-1.455,0.279-2.289,0.341c-0.032,0-0.062,0-0.062,0.031c-0.032,0-0.032-0.031-0.063-0.031&#10;&#9;&#9;c-1.547,0.217-2.66,0.187-4.207-0.123c-0.681-0.123-1.7-0.247-2.412-0.311c-1.856-0.153-4.825-0.648-4.64,2.135&#10;&#9;&#9;c0.186,2.165-1.64,2.012,3.187,3.96L1223.508,1293.535z"/>
	<path fill="#7D3018" d="M1228.952,1281.998c0.216,0.031,0.434,0.031,0.681,0c1.67-0.031,3.248-0.526,4.795-1.176&#10;&#9;&#9;c0.123-0.031,0.556-0.246,0.71-0.309l0.032-0.031c0.029,0,0.062,0,0.062-0.03c1.454-0.773,3.897-2.723,4.731-4.115&#10;&#9;&#9;c1.053-1.731,0.743-2.813-0.896-3.804c-1.145-0.681-2.165-1.145-3.495-0.649c-1.206,0.557-2.536,1.392-3.835,2.01&#10;&#9;&#9;c-0.032,0-0.032,0.031-0.032,0.031h-0.03c-0.063,0.03-0.464,0.278-0.464,0.278c-0.897,0.526-1.824,0.928-2.69,1.423&#10;&#9;&#9;c-0.093,0.062-0.187,0.094-0.278,0.155c-0.187,0.154-0.311,0.278-0.434,0.495c-0.681,1.205-0.587,1.081-1.454,2.227&#10;&#9;&#9;c-1.021,1.392-0.681,2.227,0.867,3.032C1227.529,1281.781,1228.581,1281.967,1228.952,1281.998L1228.952,1281.998z"/>
	<path fill-rule="evenodd" clip-rule="evenodd" fill="#7D3018" d="M1331.396,1270.986c9.773,7.331,16.98,13.518,16.393,24.28&#10;&#9;&#9;c12.094-7.145,20.166-18.465,22.549-33.808c3.805-24.868-19.177-21.62-30.158-2.938&#10;&#9;&#9;C1337.334,1263.347,1334.521,1267.553,1331.396,1270.986L1331.396,1270.986z"/>
	<path fill="#7D3018" d="M1321.684,1284.317l0.402,0.525c0.958,1.455,1.607,2.908,1.886,4.64c0,0,0,0.032,0,0.062&#10;&#9;&#9;c0,0.032,0,0.032,0,0.063c0.124,0.927,0.093,1.793,0,2.722c-0.216,1.484-0.587,2.846-1.392,4.114&#10;&#9;&#9;c-0.928,1.206-2.135,2.536-3.526,1.236c-0.99-0.959-0.711-1.855-0.465-3.123c0.188-0.99,0.311-1.579,0.342-2.63&#10;&#9;&#9;c0-0.588-0.062-1.021-0.154-1.608c0-0.031,0-0.031,0-0.062c0,0,0,0,0-0.031c-0.124-1.083-0.341-1.855-0.806-2.876&#10;&#9;&#9;c-0.185-0.434-0.433-1.114-0.617-1.578c-0.402-1.237-1.238-3.217,0.71-3.526c1.518-0.247,1.083-1.484,3.218,1.515&#10;&#9;&#9;L1321.684,1284.317z"/>
	<path fill="#7D3018" d="M1331.953,1279.555l0.525,0.401c1.393,1.052,2.443,2.258,3.248,3.804c0,0.032,0,0.032,0,0.063&#10;&#9;&#9;c0.03,0.031,0.03,0.031,0.063,0.062c0.37,0.835,0.617,1.67,0.803,2.567c0.279,1.484,0.341,2.907-0.031,4.361&#10;&#9;&#9;c-0.494,1.423-1.236,3.062-2.97,2.289c-1.235-0.619-1.268-1.548-1.423-2.846c-0.123-0.99-0.186-1.608-0.463-2.599&#10;&#9;&#9;c-0.217-0.558-0.402-0.959-0.65-1.516c-0.031,0-0.031,0-0.031-0.032c0,0,0,0,0-0.029c-0.463-0.99-0.896-1.671-1.638-2.475&#10;&#9;&#9;c-0.341-0.372-0.806-0.928-1.083-1.33c-0.805-1.053-2.196-2.66-0.464-3.557c1.36-0.711,0.618-1.732,3.558,0.434L1331.953,1279.555z&#10;&#9;&#9;"/>
	<path fill-rule="evenodd" clip-rule="evenodd" fill="#7D3018" d="M1238.54,1332.57c5.848,3.495,16.456,3.835,25.489,2.135&#10;&#9;&#9;c8.258-1.548,15.186-4.796,15.928-8.878c3.341-17.91-24.096-20.384-35.602-15.806c-7.269,2.908-12.156,8.476-11.938,13.856&#10;&#9;&#9;C1232.54,1327.003,1234.396,1330.097,1238.54,1332.57L1238.54,1332.57z"/>
	<path fill-rule="evenodd" clip-rule="evenodd" fill="#7D3018" d="M1111.383,1331.951c6.372,3.495,17.879,3.837,27.683,2.134&#10;&#9;&#9;c9.002-1.545,16.519-4.794,17.354-8.877c3.618-17.908-26.198-20.382-38.695-15.805c-7.918,2.906-13.238,8.444-12.99,13.826&#10;&#9;&#9;C1104.857,1326.383,1106.867,1329.478,1111.383,1331.951L1111.383,1331.951z"/>
</g>
</svg>